<svg xmlns="http://www.w3.org/2000/svg" viewBox="0 0 425.501 72.3">
  <path fill="currentColor" stroke-linecap="round" d="M135.801 70.7h-21.1V20.6h20.8v10.9q2.2-5.6 6.35-8.6 4.15-3 10.45-3 6.2 0 10.55 3.05 4.35 3.05 6.15 7.85 3.4-5.1 8.05-8 4.65-2.9 11.25-2.9 9.3 0 14.4 6.75t5.1 19.05v25h-21.1V44.6q0-8.9-6.3-8.9-3.9 0-6.25 3.15t-2.35 8.45v23.4h-21.1V44.6q0-4.7-1.6-6.8-1.6-2.1-4.7-2.1-3.9 0-6.25 3.05t-2.35 8.55v23.4ZM.101 66.6l3.6-16.3q5.8 3.1 10.85 4.05 5.05.95 9.35.95 4 0 6.05-1.3t2.05-3.5q0-2-2.3-3.15t-5.95-2.15q-3.65-1-7.75-2.35t-7.75-3.6q-3.65-2.25-5.95-6-2.3-3.75-2.3-9.45 0-7.2 3.5-12.45 3.5-5.25 10-8.1Q20.001.4 28.801.4q5.9 0 11.55 1.55t9.05 4.15l-3.4 14.7q-5.1-2.1-9.15-3.05-4.05-.95-7.65-.95-4.2 0-6.4 1.2t-2.2 3.2q0 1.9 2.3 3.1 2.3 1.2 5.9 2.3 3.6 1.1 7.7 2.5t7.7 3.7q3.6 2.3 5.9 6 2.3 3.7 2.3 9.3 0 11.6-7.55 17.9-7.55 6.3-20.95 6.3-6.3 0-12.8-1.55-6.5-1.55-11-4.15Zm309.1 4.1h-21.1V33h-6.3V20.6h6.3v-2.9q0-5.5 2.7-9.45 2.7-3.95 7.5-6.1 4.8-2.15 11.1-2.15 8 0 13.2 2.2l-1.4 12.7q-2.2-.5-4.3-.75-2.1-.25-4.1-.25-6.7 0-6.7 4.1 0 1.3.7 2.6h14.1V33h-11.7v37.7Zm-53.2-39.2V20.6h20.8v50.1h-21v-9.3q-2.4 4.9-6.4 7.5-4 2.6-10 2.6-6.9 0-12.5-3.35t-8.85-9.25q-3.25-5.9-3.25-13.5t3.25-13.3q3.25-5.7 8.85-8.95 5.6-3.25 12.5-3.25 4.9 0 9.5 2.7t7.1 8.9Zm-10.1 24.2q4.1 0 7-2.95 2.9-2.95 2.9-7.25t-2.9-7.05q-2.9-2.75-7-2.75-4.3 0-7.2 2.9-2.9 2.9-2.9 7.1 0 4.2 2.9 7.1 2.9 2.9 7.2 2.9Zm-142.8-1 2.4 12.9q-3.7 1.9-8.05 2.9-4.35 1-9.95 1-10.1 0-16.95-3.3t-10.35-9.1q-3.5-5.8-3.5-13.4 0-7.8 3.75-13.6t10.05-9q6.3-3.2 13.9-3.2 11.3 0 17.3 7.05t6 20.05l-29.8 3.8q3.3 6.7 12.4 6.7 2.9 0 6.15-.6 3.25-.6 6.65-2.2Zm-26.8-13.1 15.7-3.3q-.4-3.2-2.2-4.75-1.8-1.55-4.5-1.55-4 0-6.35 2.75-2.35 2.75-2.65 6.85Zm330.6 29.1h-21.1V20.6h20.8v12.5q2-6.8 6.25-10t10.15-3.2l2.5 17.7q-2.4-.3-4.7-.3-13.9 0-13.9 11.4v22Zm-57.5.8q-8.5 0-15-3.3t-10.15-9.15q-3.65-5.85-3.65-13.45 0-7.8 3.75-13.55 3.75-5.75 10.25-8.95 6.5-3.2 14.9-3.2 8.6 0 15.1 3.25t10.1 9q3.6 5.75 3.6 13.45 0 7.7-3.65 13.55-3.65 5.85-10.15 9.1t-15.1 3.25Zm.2-15q4.1 0 6.75-3.05 2.65-3.05 2.65-7.85t-2.6-7.85q-2.6-3.05-6.6-3.05-4.3 0-6.95 3.05-2.65 3.05-2.65 7.85t2.65 7.85q2.65 3.05 6.75 3.05Z" font-size="12"/>
</svg>
